<?xml version="1.0" encoding="UTF-8"?>
<svg id="Layer_2" data-name="Layer 2" xmlns="http://www.w3.org/2000/svg" xmlns:xlink="http://www.w3.org/1999/xlink" viewBox="0 0 65.5 62.91">
  <defs>
    <style>
      .cls-1 {
        fill: #1994c1;
      }

      .cls-2 {
        fill: url(#linear-gradient);
      }
    </style>
    <linearGradient id="linear-gradient" x1="56.2" y1="10.07" x2="3.39" y2="62.89" gradientTransform="translate(2.87 77.26) scale(1 -1)" gradientUnits="userSpaceOnUse">
      <stop offset="0" stop-color="#00b8c0"/>
      <stop offset=".24" stop-color="#01aec9"/>
      <stop offset=".64" stop-color="#0293e0"/>
      <stop offset="1" stop-color="#0475fa"/>
    </linearGradient>
  </defs>
  <g id="Layer_1-2" data-name="Layer 1">
    <path class="cls-2" d="M64.32,53.97h-1V20.45c0-3.06-2.49-5.54-5.55-5.55h-7.76v2.4h7.71c1.74,0,3.14,1.41,3.14,3.15v33.52H4.66V20.45c0-1.74,1.4-3.15,3.14-3.15h7.71v-2.4h-7.71c-3.06,0-5.54,2.49-5.55,5.55v33.52h-1c-.68,0-1.24.54-1.24,1.22,0,0,0,.01,0,.02v4.31c0,1.87,1.52,3.39,3.39,3.39h58.71c1.87,0,3.39-1.52,3.39-3.39v-4.31c.02-.67-.51-1.22-1.17-1.24ZM27.19,56.13h11.19v1.36h-11.17l-.02-1.36ZM62.08,60.51H3.48c-.55,0-1-.45-1-1v-3.12h22.57v1c0,1.26,1.02,2.29,2.29,2.29h10.84c1.26,0,2.29-1.02,2.29-2.29v-1h22.55v3.27h.06c-.07.48-.48.84-.97.85h-.02ZM52.36,44.28c-.35-.94-1.08-1.69-2.01-2.06v-2.24c0-1.87-1.52-3.39-3.39-3.39h-12.97v-2.16h-2.4v2.16h-13.99c-1.87,0-3.39,1.52-3.39,3.39h0v2.28c-1.74.7-2.59,2.68-1.89,4.43.67,1.66,2.5,2.52,4.2,1.97.86-.27,1.56-.89,1.94-1.71.83-1.69.12-3.74-1.57-4.56-.09-.05-.19-.09-.29-.12v-2.28c0-.55.45-1,1-1h13.98v3.26c-1.75.66-2.63,2.62-1.97,4.37.51,1.33,1.79,2.21,3.21,2.19.36,0,.73-.06,1.07-.17.86-.27,1.56-.89,1.94-1.71.83-1.69.12-3.74-1.57-4.56-.09-.05-.19-.09-.29-.12v-3.24h12.95c.55,0,1,.45,1,1v2.28c-1.76.66-2.65,2.62-1.99,4.38.66,1.76,2.62,2.65,4.38,1.99,1.73-.65,2.63-2.57,2.01-4.31v-.06ZM15.38,46.65c-.69,0-1.25-.55-1.25-1.23s.55-1.25,1.23-1.25,1.25.55,1.25,1.23c0,0,0,.01,0,.02,0,.68-.54,1.23-1.21,1.23,0,0-.01,0-.02,0ZM32.76,46.65c-.69,0-1.25-.55-1.25-1.23s.55-1.25,1.23-1.25,1.25.55,1.25,1.23c0,0,0,.01,0,.02,0,.68-.54,1.23-1.21,1.23,0,0-.01,0-.02,0ZM49.1,46.65c-.69,0-1.25-.55-1.25-1.23s.55-1.25,1.23-1.25c.69,0,1.25.55,1.25,1.23,0,0,0,.01,0,.02-.04.66-.57,1.19-1.23,1.23Z"/>
    <path class="cls-1" d="M15.88,9.52c9.06-9.06,23.8-9.04,32.86.02.26.26.61.4.97.4s.7-.13.97-.4c.54-.54.54-1.4,0-1.93-10.12-10.14-26.6-10.14-36.72-.02-.54.54-.54,1.4,0,1.93.53.54,1.39.54,1.93,0h0Z"/>
    <path class="cls-1" d="M43.53,16.11c.35,0,.7-.13.97-.4.54-.54.54-1.4,0-1.93-6.73-6.73-17.67-6.73-24.39-.02-.54.54-.54,1.4,0,1.93.54.54,1.4.54,1.93,0,5.66-5.65,14.86-5.65,20.51.02.29.26.64.4.98.4h0Z"/>
    <path class="cls-1" d="M38.34,21.88c.54-.54.54-1.4,0-1.93-3.32-3.32-8.73-3.32-12.04-.02-.54.53-.54,1.4,0,1.93.54.54,1.4.54,1.93,0,2.25-2.25,5.93-2.24,8.18.02.26.26.61.4.97.4s.7-.13.97-.4h0Z"/>
    <path class="cls-1" d="M32.31,24.33c-2.27,0-4.11,1.84-4.11,4.11s1.84,4.11,4.11,4.11,4.11-1.84,4.11-4.11-1.84-4.11-4.11-4.11ZM32.31,29.8c-.76,0-1.38-.61-1.38-1.38s.61-1.38,1.38-1.38,1.38.61,1.38,1.38-.61,1.38-1.38,1.38Z"/>
  </g>
</svg>